PathFileType	4	(X/Y/Z)	C:/Users/beibeiliu/ov580/test_trc\sequence.2_training_dense_left.trc
DataRate	CameraRate	NumFrames	NumMarkers	Units	OrigDataRate	OrigDataStartFrame	OrigNumFrames
120	120	9	19	mm	120	79	313
Frame#	Time	ThumbCMC			ThumbMCP			ThumbIP			ThumbTip			IndexMCP			IndexPIP			IndexTip			MiddleMCP			MiddlePIP			MiddleTip			RingMCP			RingPIP			RingTip			PinkyMCP			PinkyPIP			PinkyTip			BackHand1			BackHand2			BackHand3	
		X0	Y0	Z0	X1	Y1	Z1	X2	Y2	Z2	X3	Y3	Z3	X4	Y4	Z4	X5	Y5	Z5	X6	Y6	Z6	X7	Y7	Z7	X8	Y8	Z8	X9	Y9	Z9	X10	Y10	Z10	X11	Y11	Z11	X12	Y12	Z12	X13	Y13	Z13	X14	Y14	Z14	X15	Y15	Z15	X16	Y16	Z16	X17	Y17	Z17	X18	Y18	Z18	
78	0.65	-255.096	12.0601	28.378	-267.413	15.2444	-4.6454	-276.853	12.1981	-24.7072	-284.682	-0.0837637	-42.6274	-307.817	5.12089	-4.88307	-300.683	17.2348	-27.5721	-272.577	22.4212	-30.8653	-308.489	-15.7324	-11.9618	-306.088	-0.298968	-41.5811	-285.46	12.0354	-54.6953	-295.975	-26.596	-18.0325	-279.646	-11.6639	-38.7198	-259.386	-5.40096	-24.0563	-284.727	-42.2926	-16.285	-286.482	-27.7197	-39.8656	-275.167	-10.3601	-46.7933	-271.538	-38.5103	24.8965	-252.991	-40.7459	38.4948	-270.544	-16.5326	41.8337	
79	0.658333	-255.26	15.456	29.2451	-263.877	23.8034	-2.04579	-275.863	24.4503	-24.2468	-285.82	12.5102	-42.6913	-307.674	16.5752	-0.370214	-296.083	26.7377	-27.2488	-271.184	31.0416	-28.8011	-312.378	-0.540247	-10.414	-310.33	12.1326	-34.8585	-286.111	18.049	-52.5407	-303.762	-12.222	-18.5051	-285.833	-2.94165	-35.8523	-263.539	2.72012	-22.7032	-295.243	-32.1205	-13.511	-295.705	-21.9189	-35.1864	-279.071	-4.5231	-40.9825	-278.251	-31.9575	26.8924	-262.429	-34.4029	43.2843	-275.302	-9.40574	45.4074	
80	0.666667	-253.121	16.9785	30.1956	-257.138	29.4317	-0.309824	-272.941	27.1344	-20.9032	-281.503	19.9977	-39.6473	-307.042	28.175	-1.64208	-293.379	34.5974	-26.0788	-264.978	36.1239	-24.615	-312.113	10.6255	-8.53465	-308.157	20.9769	-36.3898	-284.94	26.7256	-50.8317	-304.439	-3.44667	-12.7829	-291.455	7.05593	-32.4985	-263.754	8.41141	-20.4701	-300.773	-25.8411	-14.941	-297.669	-10.7557	-30.3607	-275.283	0.385974	-35.1231	-287.82	-25.9723	27.0918	-264.253	-28.2398	44.5637	-274.384	-3.31723	46.9284	
81	0.675	-248.361	22.3805	31.106	-255.792	30.4888	-1.30999	-269.197	32.4995	-21.4842	-278.908	25.6399	-40.1898	-301.625	34.889	1.41605	-291.882	39.1848	-24.2836	-261.424	34.1124	-24.6627	-309.757	21.8579	-6.77583	-305.82	32.0296	-33.7019	-281.99	28.7037	-52.9377	-303.943	1.07111	-13.0177	-290.406	9.51707	-34.325	-261.324	10.8601	-21.0488	-300.71	-14.3127	-13.6717	-293.504	-3.27355	-31.2488	-266.896	1.4269	-29.3169	-286.437	-21.536	28.2263	-267.264	-29.2525	42.4519	-274.101	0.560122	45.9068	
82	0.683333	-246.084	22.6838	30.9541	-250.353	29.6546	1.15808	-266.371	33.102	-22.0776	-279.31	27.2509	-38.3827	-297.571	42.4458	0.904484	-285.865	46.5583	-24.1395	-258.549	35.8014	-26.1193	-306.441	25.8787	-4.14342	-300.817	36.4999	-35.7887	-277.139	32.4643	-52.8387	-303.285	8.31273	-13.4973	-287.432	13.2207	-34.3944	-260.978	13.7362	-22.1512	-298.102	-11.9765	-10.9265	-288.633	-0.684517	-32.3877	-264.788	1.9571	-24.4115	-288.415	-11.7257	29.1625	-268.367	-22.9942	45.8467	-272.214	2.47162	48.1377	
83	0.691667	-240.093	20.7556	31.5672	-245.385	33.729	-1.29116	-261.394	34.8824	-20.0866	-275.121	31.6456	-39.6172	-290.571	47.663	1.6982	-279.535	49.2644	-25.4049	-252.541	39.4082	-26.7041	-304.724	32.5145	-8.21588	-298.274	38.8209	-35.3838	-275.659	34.9795	-52.1281	-300.437	14.3619	-11.7531	-284.761	18.5596	-34.0191	-257.892	11.0226	-22.6142	-297.076	-7.1623	-13.1322	-283.797	0.94817	-32.2207	-260.628	4.82595	-17.3736	-287.202	-9.36493	27.8928	-268.514	-22.4175	44.1479	-270.294	8.70715	47.2592	
84	0.7	-239.12	25.8342	30.5048	-243.123	36.076	-1.94037	-255.399	41.6859	-22.7213	-269.354	36.1207	-39.5464	-285.876	52.3522	1.71183	-272.533	51.1064	-27.18	-247.9	43.1371	-27.3704	-297.935	41.6804	-7.71383	-295.297	45.0603	-34.3352	-269.429	41.1284	-52.863	-298.619	19.7453	-13.6401	-277.85	24.2021	-33.4303	-255.232	14.6847	-20.4028	-295.617	3.08242	-13.7624	-279.432	5.42626	-31.2558	-258.361	7.27159	-15.4736	-288.282	-4.40409	29.5018	-266.494	-17.6829	46.2772	-267.391	13.8527	47.8204	
85	0.708333	-233.241	25.2089	30.7849	-240.191	34.9907	-0.700913	-251.781	39.2803	-20.1036	-265.726	39.3848	-39.5104	-280.675	55.6203	-1.02149	-271.133	56.0661	-24.9079	-244.229	42.1977	-26.3356	-293.178	46.2984	-5.1565	-286.69	52.5805	-35.6099	-266.193	44.6679	-51.9605	-296.948	24.6162	-13.7267	-277.069	30.3141	-32.9535	-254.067	14.5002	-22.3003	-295.75	6.18794	-16.7718	-277.531	10.9643	-29.8736	-254.97	4.38738	-11.755	-284.356	-0.978689	29.7972	-268.684	-10.7924	45.7949	-262.08	15.6619	48.7341	
86	0.716667	-230.916	23.9526	30.9918	-234.521	36.5855	-1.72609	-243.032	43.3672	-21.5076	-262.962	42.7874	-41.7884	-274.945	58.1484	0.0749968	-261.478	61.4316	-26.6726	-236.742	42.5076	-23.266	-289.656	47.8349	-5.58993	-283.774	56.942	-32.7971	-259.333	44.8489	-54.8401	-291.549	32.1889	-12.3577	-273.241	31.8472	-34.6982	-253.528	19.7214	-26.8467	-291.426	13.8801	-13.0609	-272.025	17.5948	-27.234	-256.018	6.04673	-12.5443	-281.017	2.93178	29.5194	-268.625	-6.28151	46.3752	-260.5	20.3451	48.8499	
